<?xml version="1.0" encoding="utf-8"?>
<!-- Generator: Adobe Illustrator 17.0.0, SVG Export Plug-In . SVG Version: 6.00 Build 0)  -->
<!DOCTYPE svg PUBLIC "-//W3C//DTD SVG 1.1//EN" "http://www.w3.org/Graphics/SVG/1.1/DTD/svg11.dtd">
<svg version="1.1" id="Capa_1" xmlns="http://www.w3.org/2000/svg" xmlns:xlink="http://www.w3.org/1999/xlink" x="0px" y="0px"
	 width="1280px" height="720px" viewBox="0 0 1280 720" enable-background="new 0 0 1280 720" xml:space="preserve">
<line fill="none" stroke="#565656" stroke-width="10" stroke-miterlimit="10" x1="392.103" y1="160.1" x2="896.619" y2="160.1"/>
<line fill="none" stroke="#565656" stroke-width="10" stroke-miterlimit="10" x1="1059.361" y1="262.095" x2="1059.361" y2="503.106"/>
<line fill="none" stroke="#565656" stroke-width="10" stroke-miterlimit="10" x1="229.361" y1="262.095" x2="229.361" y2="497.584"/>
<rect x="66.619" y="58.105" fill="none" stroke="#4399FF" stroke-width="14" stroke-miterlimit="10" width="325.484" height="203.99"/>
<text transform="matrix(1 0 0 1 113.1147 170.6001)" font-family="'ArialMT'" font-size="36">CAMIONEROS</text>
<rect x="896.619" y="58.105" fill="none" stroke="#FF9B17" stroke-width="14" stroke-miterlimit="10" width="325.484" height="203.99"/>
<text transform="matrix(1 0 0 1 964.1147 170.6001)" font-family="'ArialMT'" font-size="36">PAQUETES</text>
<rect x="66.619" y="503.106" fill="none" stroke="#34FF24" stroke-width="14" stroke-miterlimit="10" width="325.484" height="203.99"/>
<text transform="matrix(1 0 0 1 131.1147 615.6001)" font-family="'ArialMT'" font-size="36">CAMIONES</text>
<rect x="896.619" y="503.106" fill="none" stroke="#FF4040" stroke-width="14" stroke-miterlimit="10" width="325.484" height="203.99"/>
<text transform="matrix(1 0 0 1 925.1147 615.6001)" font-family="'ArialMT'" font-size="36">DET. PAQUETES</text>
<rect x="597.065" y="112.099" transform="matrix(-0.6887 -0.725 0.725 -0.6887 973.2529 738.0338)" fill="#7F7F7F" stroke="#565656" stroke-width="10" stroke-miterlimit="10" width="95.986" height="95.986"/>
<rect x="1011.315" y="336.089" transform="matrix(-0.6887 -0.725 0.725 -0.6887 1510.4093 1416.6323)" fill="#7F7F7F" stroke="#565656" stroke-width="10" stroke-miterlimit="10" width="95.986" height="95.986"/>
<rect x="181.355" y="336.089" transform="matrix(-0.6887 -0.725 0.725 -0.6887 108.8373 814.8906)" fill="#7F7F7F" stroke="#565656" stroke-width="10" stroke-miterlimit="10" width="95.986" height="95.986"/>
<text transform="matrix(1 0 0 1 603.0938 168.1004)" fill="#FFFFFF" font-family="'ArialMT'" font-size="22">Recoger</text>
<text transform="matrix(1 0 0 1 1015.5731 393.0892)" fill="#FFFFFF" font-family="'ArialMT'" font-size="23">Asociado</text>
<text transform="matrix(1 0 0 1 184.0928 393.089)" fill="#FFFFFF" font-family="'ArialMT'" font-size="23">Conduce</text>
<text transform="matrix(1 0 0 1 428.5 122.5)" fill="#CC0D0D" font-family="'ArialMT'" font-size="72">(1,1)</text>
<text transform="matrix(1 0 0 1 722.5 122.5)" fill="#CC0D0D" font-family="'ArialMT'" font-size="72">(1,M)</text>
<text transform="matrix(1 0 0 1 597.0938 296.5)" fill="#B50000" font-family="'ArialMT'" font-size="72">1:N</text>
<text transform="matrix(1 0 0 1 38.5 346.5)" fill="#CC0D0D" font-family="'ArialMT'" font-size="72">(1,1)</text>
<text transform="matrix(1 0 0 1 20.5 479.5)" fill="#CC0D0D" font-family="'ArialMT'" font-size="72">(1,M)</text>
<text transform="matrix(1 0 0 1 329.0938 410.5)" fill="#B50000" font-family="'ArialMT'" font-size="72">M:N</text>
<text transform="matrix(1 0 0 1 1119.4063 342.5)" fill="#CC0D0D" font-family="'ArialMT'" font-size="72">(1,1)</text>
<text transform="matrix(1 0 0 1 1117.4063 480.5)" fill="#CC0D0D" font-family="'ArialMT'" font-size="72">(1,1)</text>
<text transform="matrix(1 0 0 1 890.0001 410.5)" fill="#B50000" font-family="'ArialMT'" font-size="72">1:1</text>
</svg>
