<?xml version="1.0" encoding="utf-8"?>
<!-- Generator: Adobe Illustrator 17.0.0, SVG Export Plug-In . SVG Version: 6.00 Build 0)  -->
<!DOCTYPE svg PUBLIC "-//W3C//DTD SVG 1.1//EN" "http://www.w3.org/Graphics/SVG/1.1/DTD/svg11.dtd">
<svg version="1.1" id="Capa_1" xmlns="http://www.w3.org/2000/svg" xmlns:xlink="http://www.w3.org/1999/xlink" x="0px" y="0px"
	 width="1920px" height="1080px" viewBox="0 0 1920 1080" enable-background="new 0 0 1920 1080" xml:space="preserve">
<line fill="none" stroke="#1C1C1C" stroke-width="18" stroke-miterlimit="10" x1="368.182" y1="333.091" x2="910.909" y2="875.818"/>
<ellipse fill="#FFFFFF" stroke="#000000" stroke-width="9" stroke-miterlimit="10" cx="356.364" cy="282.182" rx="160.909" ry="109.091"/>
<ellipse fill="#FFFFFF" stroke="#000000" stroke-width="9" stroke-miterlimit="10" cx="356.364" cy="282.182" rx="139.091" ry="94.299"/>
<line fill="none" stroke="#1C1C1C" stroke-width="18" stroke-miterlimit="10" x1="1399.091" y1="344" x2="946.364" y2="796.727"/>
<line fill="none" stroke="#1C1C1C" stroke-width="18" stroke-miterlimit="10" x1="902" y1="258.545" x2="902" y2="822.182"/>
<rect x="581.818" y="554.909" fill="#FFFFFF" stroke="#211915" stroke-width="8" stroke-miterlimit="10" width="756.364" height="369.091"/>
<text transform="matrix(1 0 0 1 244.2729 299.5456)" font-family="'ArialMT'" font-size="54">Telefonos</text>
<ellipse fill="#FFFFFF" stroke="#000000" stroke-width="9" stroke-miterlimit="10" cx="902" cy="200.364" rx="160.909" ry="109.091"/>
<text transform="matrix(1 0 0 1 869.2729 227.6367)" font-family="'ArialMT'" font-size="72">ID</text>
<ellipse fill="#FFFFFF" stroke="#000000" stroke-width="9" stroke-miterlimit="10" cx="1431.727" cy="282.182" rx="160.909" ry="109.091"/>
<text transform="matrix(1 0 0 1 1306.0002 308.4547)" font-family="'ArialMT'" font-size="64">Nombres</text>
<text transform="matrix(1 0 0 1 685.5457 796.7273)" font-family="'ArialMT'" font-size="150">Clientes</text>
<line fill="none" stroke="#000000" stroke-width="12" stroke-miterlimit="10" x1="946.364" y1="244.5" x2="858.5" y2="244.5"/>
</svg>
