<svg xmlns="http://www.w3.org/2000/svg" xmlns:xlink="http://www.w3.org/1999/xlink" xmlns:lucid="lucid" width="874" height="1188"><g transform="translate(-447 59)" lucid:page-tab-id="0_0"><path d="M0-1200h3360v2560H0z" fill="#fff"/><path d="M960 40c22.1 0 40 17.9 40 40s-17.9 40-40 40H840c-22.1 0-40-17.9-40-40s17.9-40 40-40z" stroke="#000" stroke-opacity="0" fill="#979ea8"/><use xlink:href="#a" transform="matrix(1,0,0,1,805.0000000000005,45) translate(74.05 38.6)"/><path d="M900 120.5v43.12" stroke="#333" fill="none"/><path d="M900.48 120.5h-.96v-.5h.96z" stroke="#333" stroke-width=".05" fill="#333"/><path d="M900 178.38l-4.63-14.26h9.26z" stroke="#333" fill="#333"/><path d="M900 300.5v43.12" stroke="#333" fill="none"/><path d="M900.48 300.5h-.96v-.5h.96z" stroke="#333" stroke-width=".05" fill="#333"/><path d="M900 358.38l-4.63-14.26h9.26z" stroke="#333" fill="#333"/><path d="M960 1000c22.1 0 40 17.9 40 40s-17.9 40-40 40H840c-22.1 0-40-17.9-40-40s17.9-40 40-40z" stroke="#000" stroke-opacity="0" fill="#979ea8"/><use xlink:href="#b" transform="matrix(1,0,0,1,805.0000000000005,1005) translate(82.55 38.6)"/><path d="M900 480.5v45.64" stroke="#333" fill="none"/><path d="M900.48 480.5h-.96v-.5h.96z" stroke="#333" stroke-width=".05" fill="#333"/><path d="M900 540.9l-4.63-14.26h9.26z" stroke="#333" fill="#333"/><path d="M1140 900.5V938a12 12 0 0 1-12 12H912a12 12 0 0 0-12 12v21.62" stroke="#333" fill="none"/><path d="M1140.47 900.5h-.94v-.5h.94z" stroke="#333" stroke-width=".05" fill="#333"/><path d="M900 998.38l-4.63-14.26h9.26z" stroke="#333" fill="#333"/><path d="M829.94 187.73A10.4 10.4 0 0 1 840 180h152a6.15 6.15 0 0 1 5.94 7.73l-27.88 104.54A10.4 10.4 0 0 1 960 300H808a6.15 6.15 0 0 1-5.94-7.73z" stroke="#000" stroke-opacity="0" fill="#979ea8"/><use xlink:href="#c" transform="matrix(1,0,0,1,805.0000000000005,185) translate(57.525 58.6)"/><use xlink:href="#d" transform="matrix(1,0,0,1,805.0000000000005,185) translate(122.475 58.6)"/><path d="M829.94 367.73A10.4 10.4 0 0 1 840 360h152a6.15 6.15 0 0 1 5.94 7.73l-27.88 104.54A10.4 10.4 0 0 1 960 480H808a6.15 6.15 0 0 1-5.94-7.73z" stroke="#000" stroke-opacity="0" fill="#979ea8"/><use xlink:href="#e" transform="matrix(1,0,0,1,805,365) translate(69.525 58.6)"/><use xlink:href="#d" transform="matrix(1,0,0,1,805,365) translate(110.47500000000001 58.6)"/><path d="M1049.94 787.73A10.4 10.4 0 0 1 1060 780h192a6.15 6.15 0 0 1 5.94 7.73l-27.88 104.54A10.4 10.4 0 0 1 1220 900h-192a6.15 6.15 0 0 1-5.94-7.73z" stroke="#000" stroke-opacity="0" fill="#979ea8"/><use xlink:href="#f" transform="matrix(1,0,0,1,1025,785) translate(31.099999999999994 58.6)"/><use xlink:href="#g" transform="matrix(1,0,0,1,1025,785) translate(52.05 58.6)"/><use xlink:href="#h" transform="matrix(1,0,0,1,1025,785) translate(117.95 58.6)"/><use xlink:href="#i" transform="matrix(1,0,0,1,1025,785) translate(141.95 58.6)"/><path d="M1140.47 763.62h-.94v-129.9h.94zm-10.52-153.94l1.9.45 1.8.75 1.68 1.03.25.22h-1.72l-.63-.4-1.67-.68-1.76-.42-1.82-.14H996.34v-.96h131.68z" stroke="#333" stroke-width=".05" fill="#333"/><path d="M996.35 610.48h-.56l.04-.48-.05-.48h.55z" fill="#333"/><path stroke="#333" stroke-width=".05" fill="#333"/><path d="M1140 778.38l-4.63-14.26h9.27z" fill="#333"/><path d="M1140 779.92l-5.3-16.28h10.6zm-3.98-15.33l3.98 12.25 3.98-12.26z" stroke="#333" stroke-width=".05" fill="#333"/><use xlink:href="#j" transform="matrix(1,0,0,1,1131.4999999999995,612.1173763978577) translate(0.005000000000000782 14.4)"/><path d="M893.45 544.6a11.43 11.43 0 0 1 13.1 0l86.9 60.8a5.6 5.6 0 0 1 0 9.2l-86.9 60.8a11.43 11.43 0 0 1-13.1 0l-86.9-60.8a5.6 5.6 0 0 1 0-9.2z" stroke="#000" stroke-opacity="0" fill="#979ea8"/><use xlink:href="#k" transform="matrix(1,0,0,1,804.9999999999999,545) translate(79.75 68.60000000000001)"/><path d="M529.94 787.73A10.4 10.4 0 0 1 540 780h212a6.15 6.15 0 0 1 5.94 7.73l-27.88 104.54A10.4 10.4 0 0 1 720 900H508a6.15 6.15 0 0 1-5.94-7.73z" stroke="#000" stroke-opacity="0" fill="#979ea8"/><use xlink:href="#f" transform="matrix(1,0,0,1,505,785) translate(20.599999999999994 58.6)"/><use xlink:href="#g" transform="matrix(1,0,0,1,505,785) translate(41.55 58.6)"/><use xlink:href="#h" transform="matrix(1,0,0,1,505,785) translate(107.45 58.6)"/><use xlink:href="#l" transform="matrix(1,0,0,1,505,785) translate(131.45 58.6)"/><use xlink:href="#m" transform="matrix(1,0,0,1,505,785) translate(204.4 58.6)"/><use xlink:href="#n" transform="matrix(1,0,0,1,505,785) translate(219.4 58.6)"/><path d="M634.64 622.02v141.6h-.95V621.98l.08-1.18h.96zm169.02-11.54H647.64v-.96h156.02z" stroke="#333" stroke-width=".05" fill="#333"/><path d="M804.16 610l.05.48h-.55v-.96h.56z" fill="#333"/><path stroke="#333" stroke-width=".05" fill="#333"/><path d="M634.16 778.38l-4.63-14.26h9.27z" fill="#333"/><path d="M634.16 779.92l-5.28-16.28h10.57zm-3.98-15.33l4 12.25 3.97-12.26z" stroke="#333" stroke-width=".05" fill="#333"/><g><use xlink:href="#o" transform="matrix(1,0,0,1,620.6902492399536,599.2) translate(0.005000000000000782 14.4)"/></g><path d="M630 900.5V938a12 12 0 0 0 12 12h246a12 12 0 0 1 12 12v21.62" stroke="#333" fill="none"/><path d="M630.48 900.5h-.96v-.5h.96z" stroke="#333" stroke-width=".05" fill="#333"/><path d="M900 998.38l-4.63-14.26h9.26z" stroke="#333" fill="#333"/><defs><path fill="#fff" d="M14 0l48-248h34L48 0H14" id="p"/><path fill="#fff" d="M67-158c22-48 132-52 116 29L158 0h-32l25-140c3-38-53-32-70-12C52-117 51-52 38 0H6l36-190h30" id="q"/><path fill="#fff" d="M50-231l6-30h32l-6 30H50zM6 0l37-190h31L37 0H6" id="r"/><path fill="#fff" d="M44-68c0 29 11 47 38 47 30 0 42-19 51-41l28 9C148-21 126 4 82 4 31 4 10-29 12-85c3-77 74-140 146-93 12 8 15 23 18 40l-31 5c-1-22-13-36-36-36-52 0-65 49-65 101" id="s"/><path fill="#fff" d="M30-147c31-64 166-65 159 27C183-49 158 1 86 4 9 8 1-88 30-147zM88-20c53 0 68-48 68-100 0-31-11-51-44-50-52 1-68 46-68 97 0 32 13 53 44 53" id="t"/><g id="a"><use transform="matrix(0.05,0,0,0.05,0,0)" xlink:href="#p"/><use transform="matrix(0.05,0,0,0.05,5,0)" xlink:href="#q"/><use transform="matrix(0.05,0,0,0.05,15,0)" xlink:href="#r"/><use transform="matrix(0.05,0,0,0.05,18.95,0)" xlink:href="#s"/><use transform="matrix(0.05,0,0,0.05,27.950000000000003,0)" xlink:href="#r"/><use transform="matrix(0.05,0,0,0.05,31.899999999999995,0)" xlink:href="#t"/></g><path fill="#fff" d="M87-220l-18 92h140l-5 28H64L45 0H11l48-248h178l-5 28H87" id="u"/><g id="b"><use transform="matrix(0.05,0,0,0.05,0,0)" xlink:href="#u"/><use transform="matrix(0.05,0,0,0.05,10.950000000000001,0)" xlink:href="#r"/><use transform="matrix(0.05,0,0,0.05,14.9,0)" xlink:href="#q"/></g><path fill="#fff" d="M103-194c29 0 47 14 56 36 2-11 5-23 8-32h30L160-5C157 61 82 97 21 62 9 55 4 45 1 30l28-7c7 42 83 31 92-3 4-16 9-38 13-55-13 20-29 36-62 36-40 0-60-25-60-64 0-71 23-131 91-131zm4 24c-53 0-58 54-61 104-2 27 10 44 36 44 49 0 65-50 67-102 1-29-15-46-42-46" id="v"/><path fill="#fff" d="M66-151c12-25 30-51 66-40l-6 26C45-176 58-65 38 0H6l36-190h30" id="w"/><path fill="#fff" d="M111-194c62-3 86 47 72 106H45c-7 38 6 69 45 68 27-1 43-14 53-32l24 11C152-15 129 4 87 4 38 3 12-23 12-71c0-70 32-119 99-123zm44 81c14-66-71-72-95-28-4 8-8 17-11 28h106" id="x"/><path fill="#fff" d="M55-144c13 50 104 24 104 88C159 21 15 23 1-39l26-10c6 40 102 42 102-4-13-50-104-23-104-87 0-71 143-71 148-8l-29 4c-5-35-85-37-89 0" id="y"/><g id="c"><use transform="matrix(0.05,0,0,0.05,0,0)" xlink:href="#p"/><use transform="matrix(0.05,0,0,0.05,5,0)" xlink:href="#q"/><use transform="matrix(0.05,0,0,0.05,15,0)" xlink:href="#v"/><use transform="matrix(0.05,0,0,0.05,25,0)" xlink:href="#w"/><use transform="matrix(0.05,0,0,0.05,30.950000000000003,0)" xlink:href="#x"/><use transform="matrix(0.05,0,0,0.05,40.95,0)" xlink:href="#y"/><use transform="matrix(0.05,0,0,0.05,49.95,0)" xlink:href="#x"/></g><use transform="matrix(0.05,0,0,0.05,0,0)" xlink:href="#q" id="d"/><path fill="#fff" d="M11 0l48-248h34L50-27h125l-5 27H11" id="z"/><g id="e"><use transform="matrix(0.05,0,0,0.05,0,0)" xlink:href="#z"/><use transform="matrix(0.05,0,0,0.05,10,0)" xlink:href="#x"/><use transform="matrix(0.05,0,0,0.05,20,0)" xlink:href="#x"/><use transform="matrix(0.05,0,0,0.05,30,0)" xlink:href="#w"/></g><path fill="#fff" d="M11 0l48-248h184l-5 28H87l-15 79h140l-5 27H67L50-27h158l-5 27H11" id="A"/><path fill="#fff" d="M6 0l50-261h32L37 0H6" id="B"/><g id="f"><use transform="matrix(0.05,0,0,0.05,0,0)" xlink:href="#A"/><use transform="matrix(0.05,0,0,0.05,12,0)" xlink:href="#B"/></g><path fill="#fff" d="M67 3c-93-2-31-127-26-193h32L48-50c-3 39 53 32 70 12 30-34 30-101 43-152h32L157 0h-30c1-10 6-24 4-33-14 20-29 37-64 36zm28-214c10-23 31-35 45-54h38l-1 5-66 49H95" id="C"/><path fill="#fff" d="M248-111c6-24 9-61-24-58-72 9-57 108-77 169h-31l26-142c3-37-50-30-64-10C52-115 50-51 37 0H6l36-190h30c-1 10-6 24-4 32 13-43 101-52 105 5 13-22 29-41 61-41 90 0 28 129 23 194h-31" id="D"/><g id="g"><use transform="matrix(0.05,0,0,0.05,0,0)" xlink:href="#q"/><use transform="matrix(0.05,0,0,0.05,10,0)" xlink:href="#C"/><use transform="matrix(0.05,0,0,0.05,20,0)" xlink:href="#D"/><use transform="matrix(0.05,0,0,0.05,34.95,0)" xlink:href="#x"/><use transform="matrix(0.05,0,0,0.05,44.95,0)" xlink:href="#w"/><use transform="matrix(0.05,0,0,0.05,50.900000000000006,0)" xlink:href="#t"/></g><g id="h"><use transform="matrix(0.05,0,0,0.05,0,0)" xlink:href="#x"/><use transform="matrix(0.05,0,0,0.05,10,0)" xlink:href="#y"/></g><path fill="#fff" d="M67-162c32-53 139-36 121 50C175-51 163 2 97 4 68 4 52-11 42-31 38 6 28 39 22 75H-9l50-265h29c-1 10 0 20-3 28zm89 36c0-26-10-43-35-43-54 0-67 50-69 103-1 29 14 45 42 46 53 0 62-58 62-106" id="E"/><path fill="#fff" d="M51-54c-9 22 5 41 31 30L79-1C43 14 10-4 19-52l22-115H19l5-23h22l19-43h21l-9 43h35l-4 23H73" id="F"/><path fill="#fff" d="M89 0H52L20-190h33L74-25l89-165h34" id="G"/><g id="i"><use transform="matrix(0.05,0,0,0.05,0,0)" xlink:href="#E"/><use transform="matrix(0.05,0,0,0.05,10,0)" xlink:href="#t"/><use transform="matrix(0.05,0,0,0.05,20,0)" xlink:href="#y"/><use transform="matrix(0.05,0,0,0.05,29,0)" xlink:href="#F"/><use transform="matrix(0.05,0,0,0.05,34,0)" xlink:href="#r"/><use transform="matrix(0.05,0,0,0.05,37.95,0)" xlink:href="#G"/><use transform="matrix(0.05,0,0,0.05,46.95,0)" xlink:href="#t"/></g><path fill="#666" d="M185-189c-5-48-123-54-124 2 14 75 158 14 163 119 3 78-121 87-175 55-17-10-28-26-33-46l33-7c5 56 141 63 141-1 0-78-155-14-162-118-5-82 145-84 179-34 5 7 8 16 11 25" id="H"/><path fill="#666" d="M33 0v-248h34V0H33" id="I"/><g id="j"><use transform="matrix(0.05,0,0,0.05,0,0)" xlink:href="#H"/><use transform="matrix(0.05,0,0,0.05,12,0)" xlink:href="#I"/></g><path fill="#fff" d="M23-27v-27l151-64-151-65v-27l175 74v36" id="J"/><path fill="#fff" d="M16-82c0-90 25-169 113-169 48 0 68 33 68 82C197-79 170 4 84 4 37 4 16-31 16-82zm30 5c0 32 11 55 40 55 69 0 76-79 80-149 2-32-10-55-39-55-69 0-81 81-81 149" id="K"/><g id="k"><use transform="matrix(0.05,0,0,0.05,0,0)" xlink:href="#q"/><use transform="matrix(0.05,0,0,0.05,10,0)" xlink:href="#J"/><use transform="matrix(0.05,0,0,0.05,20.5,0)" xlink:href="#K"/></g><path fill="#fff" d="M165-48c-4 18 1 34 23 27l-3 20c-29 8-62 0-52-35h-2C116-14 99 4 63 4 30 4 8-16 8-49c0-68 71-67 138-67 10-26 0-56-31-54-26 1-42 9-47 31l-32-5c8-67 160-71 144 15-5 28-9 54-15 81zM42-50c3 52 80 24 89-6 7-12 7-24 11-38-47 1-103-4-100 44" id="L"/><g id="l"><use transform="matrix(0.05,0,0,0.05,0,0)" xlink:href="#q"/><use transform="matrix(0.05,0,0,0.05,10,0)" xlink:href="#x"/><use transform="matrix(0.05,0,0,0.05,20,0)" xlink:href="#v"/><use transform="matrix(0.05,0,0,0.05,30,0)" xlink:href="#L"/><use transform="matrix(0.05,0,0,0.05,40,0)" xlink:href="#F"/><use transform="matrix(0.05,0,0,0.05,45,0)" xlink:href="#r"/><use transform="matrix(0.05,0,0,0.05,48.95,0)" xlink:href="#G"/><use transform="matrix(0.05,0,0,0.05,57.95,0)" xlink:href="#t"/></g><use transform="matrix(0.05,0,0,0.05,0,0)" xlink:href="#t" id="m"/><use transform="matrix(0.05,0,0,0.05,0,0)" xlink:href="#K" id="n"/><path fill="#666" d="M190 0L58-211 59 0H30v-248h39L202-35l-2-213h31V0h-41" id="M"/><path fill="#666" d="M140-251c81 0 123 46 123 126C263-46 219 4 140 4 59 4 17-45 17-125s42-126 123-126zm0 227c63 0 89-41 89-101s-29-99-89-99c-61 0-89 39-89 99S79-25 140-24" id="N"/><g id="o"><use transform="matrix(0.05,0,0,0.05,0,0)" xlink:href="#M"/><use transform="matrix(0.05,0,0,0.05,12.950000000000001,0)" xlink:href="#N"/></g></defs></g></svg>