<svg xmlns="http://www.w3.org/2000/svg" xmlns:xlink="http://www.w3.org/1999/xlink" xmlns:lucid="lucid" width="280" height="1087"><g transform="translate(-760 67)" lucid:page-tab-id="0_0"><path d="M0-1200h3360v2560H0z" fill="#fff"/><path d="M960 40c22.1 0 40 17.9 40 40s-17.9 40-40 40H840c-22.1 0-40-17.9-40-40s17.9-40 40-40z" stroke="#000" stroke-opacity="0" fill="#979ea8"/><use xlink:href="#a" transform="matrix(1,0,0,1,805.0000000000005,45) translate(74.05 38.6)"/><path d="M900 120.5v43.12" stroke="#333" fill="none"/><path d="M900.48 120.5h-.96v-.5h.96z" stroke="#333" stroke-width=".05" fill="#333"/><path d="M900 178.38l-4.63-14.26h9.26z" stroke="#333" fill="#333"/><path d="M900 300.5v43.12" stroke="#333" fill="none"/><path d="M900.48 300.5h-.96v-.5h.96z" stroke="#333" stroke-width=".05" fill="#333"/><path d="M900 358.38l-4.63-14.26h9.26z" stroke="#333" fill="#333"/><path d="M960 900c22.1 0 40 17.9 40 40s-17.9 40-40 40H840c-22.1 0-40-17.9-40-40s17.9-40 40-40z" stroke="#000" stroke-opacity="0" fill="#979ea8"/><use xlink:href="#b" transform="matrix(1,0,0,1,805.0000000000005,905) translate(82.55 38.6)"/><path d="M900 480.5v63.12" stroke="#333" fill="none"/><path d="M900.48 480.5h-.96v-.5h.96z" stroke="#333" stroke-width=".05" fill="#333"/><path d="M900 558.38l-4.63-14.26h9.26z" stroke="#333" fill="#333"/><path d="M900 680.5v23.12" stroke="#333" fill="none"/><path d="M900.48 680.5h-.96v-.5h.96z" stroke="#333" stroke-width=".05" fill="#333"/><path d="M900 718.38l-4.63-14.26h9.26z" stroke="#333" fill="#333"/><path d="M900 840.5v43.12" stroke="#333" fill="none"/><path d="M900.48 840.5h-.96v-.5h.96z" stroke="#333" stroke-width=".05" fill="#333"/><path d="M900 898.38l-4.63-14.26h9.26z" stroke="#333" fill="#333"/><path d="M800 188a8 8 0 0 1 8-8h184a8 8 0 0 1 8 8v104a8 8 0 0 1-8 8H808a8 8 0 0 1-8-8z" stroke="#000" stroke-opacity="0" fill="#979ea8"/><use xlink:href="#c" transform="matrix(1,0,0,1,805.0000000000005,185) translate(31.525 58.6)"/><use xlink:href="#d" transform="matrix(1,0,0,1,805.0000000000005,185) translate(75.525 58.6)"/><use xlink:href="#e" transform="matrix(1,0,0,1,805.0000000000005,185) translate(104.525 58.6)"/><path d="M800 368a8 8 0 0 1 8-8h184a8 8 0 0 1 8 8v104a8 8 0 0 1-8 8H808a8 8 0 0 1-8-8z" stroke="#000" stroke-opacity="0" fill="#979ea8"/><use xlink:href="#f" transform="matrix(1,0,0,1,805,365) translate(2.4000000000000057 47.8)"/><use xlink:href="#g" transform="matrix(1,0,0,1,805,365) translate(51.650000000000006 47.8)"/><use xlink:href="#h" transform="matrix(1,0,0,1,805,365) translate(86.65 47.8)"/><use xlink:href="#i" transform="matrix(1,0,0,1,805,365) translate(167.6 47.8)"/><use xlink:href="#j" transform="matrix(1,0,0,1,805,365) translate(80 69.4)"/><path d="M800 568a8 8 0 0 1 8-8h184a8 8 0 0 1 8 8v104a8 8 0 0 1-8 8H808a8 8 0 0 1-8-8z" stroke="#000" stroke-opacity="0" fill="#979ea8"/><g><use xlink:href="#k" transform="matrix(1,0,0,1,805,565) translate(5.625 47.8)"/><use xlink:href="#l" transform="matrix(1,0,0,1,805,565) translate(42.625 47.8)"/><use xlink:href="#m" transform="matrix(1,0,0,1,805,565) translate(139.425 47.8)"/><use xlink:href="#n" transform="matrix(1,0,0,1,805,565) translate(70.525 69.4)"/><use xlink:href="#j" transform="matrix(1,0,0,1,805,565) translate(89.47500000000001 69.4)"/></g><path d="M800 728a8 8 0 0 1 8-8h184a8 8 0 0 1 8 8v104a8 8 0 0 1-8 8H808a8 8 0 0 1-8-8z" stroke="#000" stroke-opacity="0" fill="#979ea8"/><g><use xlink:href="#f" transform="matrix(1,0,0,1,805.0000000000005,725) translate(1.9249999999999972 47.8)"/><use xlink:href="#o" transform="matrix(1,0,0,1,805.0000000000005,725) translate(51.175 47.8)"/><use xlink:href="#h" transform="matrix(1,0,0,1,805.0000000000005,725) translate(87.125 47.8)"/><use xlink:href="#i" transform="matrix(1,0,0,1,805.0000000000005,725) translate(168.075 47.8)"/><use xlink:href="#p" transform="matrix(1,0,0,1,805.0000000000005,725) translate(6.099999999999994 69.4)"/><use xlink:href="#q" transform="matrix(1,0,0,1,805.0000000000005,725) translate(41.099999999999994 69.4)"/><use xlink:href="#r" transform="matrix(1,0,0,1,805.0000000000005,725) translate(55.099999999999994 69.4)"/><use xlink:href="#s" transform="matrix(1,0,0,1,805.0000000000005,725) translate(126 69.4)"/></g><defs><path fill="#fff" d="M14 0l48-248h34L48 0H14" id="t"/><path fill="#fff" d="M67-158c22-48 132-52 116 29L158 0h-32l25-140c3-38-53-32-70-12C52-117 51-52 38 0H6l36-190h30" id="u"/><path fill="#fff" d="M50-231l6-30h32l-6 30H50zM6 0l37-190h31L37 0H6" id="v"/><path fill="#fff" d="M44-68c0 29 11 47 38 47 30 0 42-19 51-41l28 9C148-21 126 4 82 4 31 4 10-29 12-85c3-77 74-140 146-93 12 8 15 23 18 40l-31 5c-1-22-13-36-36-36-52 0-65 49-65 101" id="w"/><path fill="#fff" d="M30-147c31-64 166-65 159 27C183-49 158 1 86 4 9 8 1-88 30-147zM88-20c53 0 68-48 68-100 0-31-11-51-44-50-52 1-68 46-68 97 0 32 13 53 44 53" id="x"/><g id="a"><use transform="matrix(0.05,0,0,0.05,0,0)" xlink:href="#t"/><use transform="matrix(0.05,0,0,0.05,5,0)" xlink:href="#u"/><use transform="matrix(0.05,0,0,0.05,15,0)" xlink:href="#v"/><use transform="matrix(0.05,0,0,0.05,18.95,0)" xlink:href="#w"/><use transform="matrix(0.05,0,0,0.05,27.950000000000003,0)" xlink:href="#v"/><use transform="matrix(0.05,0,0,0.05,31.899999999999995,0)" xlink:href="#x"/></g><path fill="#fff" d="M87-220l-18 92h140l-5 28H64L45 0H11l48-248h178l-5 28H87" id="y"/><g id="b"><use transform="matrix(0.05,0,0,0.05,0,0)" xlink:href="#y"/><use transform="matrix(0.05,0,0,0.05,10.950000000000001,0)" xlink:href="#v"/><use transform="matrix(0.05,0,0,0.05,14.9,0)" xlink:href="#u"/></g><path fill="#fff" d="M11 0l48-248h34L50-27h125l-5 27H11" id="z"/><path fill="#fff" d="M165-48c-4 18 1 34 23 27l-3 20c-29 8-62 0-52-35h-2C116-14 99 4 63 4 30 4 8-16 8-49c0-68 71-67 138-67 10-26 0-56-31-54-26 1-42 9-47 31l-32-5c8-67 160-71 144 15-5 28-9 54-15 81zM42-50c3 52 80 24 89-6 7-12 7-24 11-38-47 1-103-4-100 44" id="A"/><path fill="#fff" d="M89 0H52L20-190h33L74-25l89-165h34" id="B"/><g id="c"><use transform="matrix(0.05,0,0,0.05,0,0)" xlink:href="#z"/><use transform="matrix(0.05,0,0,0.05,10,0)" xlink:href="#A"/><use transform="matrix(0.05,0,0,0.05,20,0)" xlink:href="#B"/><use transform="matrix(0.05,0,0,0.05,29,0)" xlink:href="#A"/></g><path fill="#fff" d="M51-54c-9 22 5 41 31 30L79-1C43 14 10-4 19-52l22-115H19l5-23h22l19-43h21l-9 43h35l-4 23H73" id="C"/><path fill="#fff" d="M67 3c-93-2-31-127-26-193h32L48-50c-3 39 53 32 70 12 30-34 30-101 43-152h32L157 0h-30c1-10 6-24 4-33-14 20-29 37-64 36" id="D"/><path fill="#fff" d="M55-144c13 50 104 24 104 88C159 21 15 23 1-39l26-10c6 40 102 42 102-4-13-50-104-23-104-87 0-71 143-71 148-8l-29 4c-5-35-85-37-89 0" id="E"/><g id="d"><use transform="matrix(0.05,0,0,0.05,0,0)" xlink:href="#C"/><use transform="matrix(0.05,0,0,0.05,5,0)" xlink:href="#D"/><use transform="matrix(0.05,0,0,0.05,15,0)" xlink:href="#E"/></g><path fill="#fff" d="M248-111c6-24 9-61-24-58-72 9-57 108-77 169h-31l26-142c3-37-50-30-64-10C52-115 50-51 37 0H6l36-190h30c-1 10-6 24-4 32 13-43 101-52 105 5 13-22 29-41 61-41 90 0 28 129 23 194h-31" id="F"/><g id="e"><use transform="matrix(0.05,0,0,0.05,0,0)" xlink:href="#F"/><use transform="matrix(0.05,0,0,0.05,14.950000000000001,0)" xlink:href="#A"/><use transform="matrix(0.05,0,0,0.05,24.950000000000003,0)" xlink:href="#u"/><use transform="matrix(0.05,0,0,0.05,34.95,0)" xlink:href="#x"/><use transform="matrix(0.05,0,0,0.05,44.95,0)" xlink:href="#E"/></g><path fill="#fff" d="M151-220L108 0H75l42-220H32l6-28h203l-5 28h-85" id="G"/><g id="f"><use transform="matrix(0.05,0,0,0.05,0,0)" xlink:href="#G"/><use transform="matrix(0.05,0,0,0.05,9.3,0)" xlink:href="#x"/><use transform="matrix(0.05,0,0,0.05,19.3,0)" xlink:href="#F"/><use transform="matrix(0.05,0,0,0.05,34.25,0)" xlink:href="#A"/></g><g id="g"><use transform="matrix(0.05,0,0,0.05,0,0)" xlink:href="#D"/><use transform="matrix(0.05,0,0,0.05,10,0)" xlink:href="#u"/><use transform="matrix(0.05,0,0,0.05,20,0)" xlink:href="#A"/></g><path fill="#fff" d="M66-151c12-25 30-51 66-40l-6 26C45-176 58-65 38 0H6l36-190h30" id="H"/><path fill="#fff" d="M111-194c62-3 86 47 72 106H45c-7 38 6 69 45 68 27-1 43-14 53-32l24 11C152-15 129 4 87 4 38 3 12-23 12-71c0-70 32-119 99-123zm44 81c14-66-71-72-95-28-4 8-8 17-11 28h106" id="I"/><path fill="#fff" d="M68-162c25-46 127-43 121 31C183-60 169 1 98 4 69 5 53-11 43-31L36 0H5l52-261h31zm88 36c2-27-9-43-34-43-55 0-70 51-70 103 0 29 15 45 43 46 52 0 58-58 61-106" id="J"/><path fill="#fff" d="M133-28C103 26-5 8 13-77c13-62 24-115 90-117 29-1 46 15 56 35l19-102h32L160 0h-30zM45-64c-2 27 10 43 35 43 54-1 69-50 69-103 0-29-15-46-42-46-53-1-58 58-62 106" id="K"/><g id="h"><use transform="matrix(0.05,0,0,0.05,0,0)" xlink:href="#H"/><use transform="matrix(0.05,0,0,0.05,5.95,0)" xlink:href="#I"/><use transform="matrix(0.05,0,0,0.05,15.949999999999998,0)" xlink:href="#J"/><use transform="matrix(0.05,0,0,0.05,25.950000000000003,0)" xlink:href="#A"/><use transform="matrix(0.05,0,0,0.05,35.95,0)" xlink:href="#u"/><use transform="matrix(0.05,0,0,0.05,45.95,0)" xlink:href="#A"/><use transform="matrix(0.05,0,0,0.05,55.95,0)" xlink:href="#K"/><use transform="matrix(0.05,0,0,0.05,65.95,0)" xlink:href="#A"/></g><g id="i"><use transform="matrix(0.05,0,0,0.05,0,0)" xlink:href="#K"/><use transform="matrix(0.05,0,0,0.05,10,0)" xlink:href="#I"/></g><path fill="#fff" d="M67-162c32-53 139-36 121 50C175-51 163 2 97 4 68 4 52-11 42-31 38 6 28 39 22 75H-9l50-265h29c-1 10 0 20-3 28zm89 36c0-26-10-43-35-43-54 0-67 50-69 103-1 29 14 45 42 46 53 0 62-58 62-106" id="L"/><g id="j"><use transform="matrix(0.05,0,0,0.05,0,0)" xlink:href="#L"/><use transform="matrix(0.05,0,0,0.05,10,0)" xlink:href="#A"/><use transform="matrix(0.05,0,0,0.05,20,0)" xlink:href="#u"/></g><path fill="#fff" d="M238-179c0 84-86 86-175 82L45 0H11l48-248c82 0 179-12 179 69zm-34 1c0-53-64-42-116-43l-19 98c63 0 135 9 135-55" id="M"/><g id="k"><use transform="matrix(0.05,0,0,0.05,0,0)" xlink:href="#M"/><use transform="matrix(0.05,0,0,0.05,12,0)" xlink:href="#x"/><use transform="matrix(0.05,0,0,0.05,22,0)" xlink:href="#u"/></g><path fill="#fff" d="M133-28C103 26-5 8 13-77c13-62 24-115 90-117 29-1 46 15 56 35 2-12 6-24 8-34h31L144 75h-31zM45-64c-2 27 10 43 35 43 54-1 69-50 69-103 0-29-15-46-42-46-53-1-58 58-62 106" id="N"/><path fill="#fff" d="M6 0l50-261h32L37 0H6" id="O"/><g id="l"><use transform="matrix(0.05,0,0,0.05,0,0)" xlink:href="#F"/><use transform="matrix(0.05,0,0,0.05,14.950000000000001,0)" xlink:href="#A"/><use transform="matrix(0.05,0,0,0.05,24.950000000000003,0)" xlink:href="#u"/><use transform="matrix(0.05,0,0,0.05,34.95,0)" xlink:href="#C"/><use transform="matrix(0.05,0,0,0.05,39.95,0)" xlink:href="#I"/><use transform="matrix(0.05,0,0,0.05,49.95,0)" xlink:href="#N"/><use transform="matrix(0.05,0,0,0.05,59.95,0)" xlink:href="#D"/><use transform="matrix(0.05,0,0,0.05,69.95,0)" xlink:href="#v"/><use transform="matrix(0.05,0,0,0.05,73.9,0)" xlink:href="#O"/><use transform="matrix(0.05,0,0,0.05,77.85000000000001,0)" xlink:href="#O"/><use transform="matrix(0.05,0,0,0.05,81.80000000000001,0)" xlink:href="#A"/></g><g id="m"><use transform="matrix(0.05,0,0,0.05,0,0)" xlink:href="#E"/><use transform="matrix(0.05,0,0,0.05,9,0)" xlink:href="#x"/><use transform="matrix(0.05,0,0,0.05,19,0)" xlink:href="#J"/><use transform="matrix(0.05,0,0,0.05,29,0)" xlink:href="#H"/><use transform="matrix(0.05,0,0,0.05,34.95,0)" xlink:href="#I"/></g><g id="n"><use transform="matrix(0.05,0,0,0.05,0,0)" xlink:href="#I"/><use transform="matrix(0.05,0,0,0.05,10,0)" xlink:href="#O"/></g><g id="o"><use transform="matrix(0.05,0,0,0.05,0,0)" xlink:href="#x"/><use transform="matrix(0.05,0,0,0.05,10,0)" xlink:href="#C"/><use transform="matrix(0.05,0,0,0.05,15,0)" xlink:href="#H"/><use transform="matrix(0.05,0,0,0.05,20.95,0)" xlink:href="#A"/></g><g id="p"><use transform="matrix(0.05,0,0,0.05,0,0)" xlink:href="#L"/><use transform="matrix(0.05,0,0,0.05,10,0)" xlink:href="#A"/><use transform="matrix(0.05,0,0,0.05,20,0)" xlink:href="#u"/></g><path fill="#fff" d="M198-190L69 30C53 58 25 83-20 72c4-11-1-27 19-22 33-1 43-29 59-52L20-190h32L79-34l84-156h35" id="P"/><use transform="matrix(0.05,0,0,0.05,0,0)" xlink:href="#P" id="q"/><g id="r"><use transform="matrix(0.05,0,0,0.05,0,0)" xlink:href="#w"/><use transform="matrix(0.05,0,0,0.05,9,0)" xlink:href="#x"/><use transform="matrix(0.05,0,0,0.05,19,0)" xlink:href="#O"/><use transform="matrix(0.05,0,0,0.05,22.95,0)" xlink:href="#x"/><use transform="matrix(0.05,0,0,0.05,32.95,0)" xlink:href="#w"/><use transform="matrix(0.05,0,0,0.05,41.95,0)" xlink:href="#A"/><use transform="matrix(0.05,0,0,0.05,51.95,0)" xlink:href="#O"/><use transform="matrix(0.05,0,0,0.05,55.900000000000006,0)" xlink:href="#A"/></g><g id="s"><use transform="matrix(0.05,0,0,0.05,0,0)" xlink:href="#I"/><use transform="matrix(0.05,0,0,0.05,10,0)" xlink:href="#u"/><use transform="matrix(0.05,0,0,0.05,20,0)" xlink:href="#w"/><use transform="matrix(0.05,0,0,0.05,29,0)" xlink:href="#v"/><use transform="matrix(0.05,0,0,0.05,32.95,0)" xlink:href="#F"/><use transform="matrix(0.05,0,0,0.05,47.900000000000006,0)" xlink:href="#A"/></g></defs></g></svg>