<svg xmlns="http://www.w3.org/2000/svg" xmlns:xlink="http://www.w3.org/1999/xlink" xmlns:lucid="lucid" width="541" height="1427"><g transform="translate(-650 67)" lucid:page-tab-id="0_0"><path d="M0-1200h3360v2560H0z" fill="#fff"/><path d="M960 40c22.1 0 40 17.9 40 40s-17.9 40-40 40H840c-22.1 0-40-17.9-40-40s17.9-40 40-40z" stroke="#000" stroke-opacity="0" fill="#979ea8"/><use xlink:href="#a" transform="matrix(1,0,0,1,805.0000000000005,45) translate(74.05 38.6)"/><path d="M900 120.5v43.12" stroke="#333" fill="none"/><path d="M900.48 120.5h-.96v-.5h.96z" stroke="#333" stroke-width=".05" fill="#333"/><path d="M900 178.38l-4.63-14.26h9.26z" stroke="#333" fill="#333"/><path d="M910.3 300.5V330h-.13v13.62" stroke="#333" fill="none"/><path d="M910.78 300.5h-.95v-.5h.95z" stroke="#333" stroke-width=".05" fill="#333"/><path d="M910.17 358.38l-4.63-14.26h9.27z" stroke="#333" fill="#333"/><path d="M970.17 1240c22.1 0 40 17.9 40 40s-17.9 40-40 40h-120c-22.1 0-40-17.9-40-40s17.9-40 40-40z" stroke="#000" stroke-opacity="0" fill="#979ea8"/><use xlink:href="#b" transform="matrix(1,0,0,1,815.1732209022156,1245) translate(82.55 38.6)"/><path d="M910.17 480.5v43.12" stroke="#333" fill="none"/><path d="M910.65 480.5h-.95v-.5h.95z" stroke="#333" stroke-width=".05" fill="#333"/><path d="M910.17 538.38l-4.63-14.26h9.27z" stroke="#333" fill="#333"/><path d="M910.17 660.5v43.12" stroke="#333" fill="none"/><path d="M910.65 660.5h-.95v-.5h.95z" stroke="#333" stroke-width=".05" fill="#333"/><path d="M910.17 718.38l-4.63-14.26h9.27z" stroke="#333" fill="#333"/><path d="M835.1 187.73a10.4 10.4 0 0 1 10.05-7.73h152a6.15 6.15 0 0 1 5.94 7.73l-27.9 104.54a10.4 10.4 0 0 1-10.05 7.73h-152a6.15 6.15 0 0 1-5.94-7.73z" stroke="#000" stroke-opacity="0" fill="#979ea8"/><use xlink:href="#c" transform="matrix(1,0,0,1,810.1502749942885,185) translate(57.525 58.6)"/><use xlink:href="#d" transform="matrix(1,0,0,1,810.1502749942885,185) translate(122.475 58.6)"/><path d="M840.1 367.73a10.4 10.4 0 0 1 10.07-7.73h152a6.15 6.15 0 0 1 5.94 7.73l-27.87 104.54a10.4 10.4 0 0 1-10.06 7.73h-152a6.15 6.15 0 0 1-5.93-7.73z" stroke="#000" stroke-opacity="0" fill="#979ea8"/><use xlink:href="#e" transform="matrix(1,0,0,1,815.1732209022156,365) translate(69.525 58.6)"/><use xlink:href="#d" transform="matrix(1,0,0,1,815.1732209022156,365) translate(110.47500000000001 58.6)"/><path d="M840.1 547.73a10.4 10.4 0 0 1 10.07-7.73h152a6.15 6.15 0 0 1 5.94 7.73l-27.87 104.54a10.4 10.4 0 0 1-10.06 7.73h-152a6.15 6.15 0 0 1-5.93-7.73z" stroke="#000" stroke-opacity="0" fill="#979ea8"/><use xlink:href="#c" transform="matrix(1,0,0,1,815.1732209022156,545) translate(57.525 58.6)"/><use xlink:href="#f" transform="matrix(1,0,0,1,815.1732209022156,545) translate(122.475 58.6)"/><path d="M840.1 727.73a10.4 10.4 0 0 1 10.07-7.73h152a6.15 6.15 0 0 1 5.94 7.73l-27.87 104.54a10.4 10.4 0 0 1-10.06 7.73h-152a6.15 6.15 0 0 1-5.93-7.73z" stroke="#000" stroke-opacity="0" fill="#979ea8"/><use xlink:href="#e" transform="matrix(1,0,0,1,815.1732209022156,725) translate(69.525 58.6)"/><use xlink:href="#f" transform="matrix(1,0,0,1,815.1732209022156,725) translate(110.47500000000001 58.6)"/><path d="M820 908a8 8 0 0 1 8-8h164a8 8 0 0 1 8 8v104a8 8 0 0 1-8 8H828a8 8 0 0 1-8-8z" stroke="#000" stroke-opacity="0" fill="#979ea8"/><use xlink:href="#g" transform="matrix(1,0,0,1,825,905) translate(36.025 58.6)"/><use xlink:href="#h" transform="matrix(1,0,0,1,825,905) translate(87.975 58.6)"/><use xlink:href="#i" transform="matrix(1,0,0,1,825,905) translate(103.475 58.6)"/><path d="M829.94 1077.73A10.4 10.4 0 0 1 840 1070h152a6.15 6.15 0 0 1 5.94 7.73l-27.88 104.54A10.4 10.4 0 0 1 960 1190H808a6.15 6.15 0 0 1-5.94-7.73z" stroke="#000" stroke-opacity="0" fill="#979ea8"/><use xlink:href="#j" transform="matrix(1,0,0,1,805.0000000000005,1075) translate(36.67499999999999 58.6)"/><use xlink:href="#k" transform="matrix(1,0,0,1,805.0000000000005,1075) translate(106.375 58.6)"/><path d="M910.17 840.5v43.12" stroke="#333" fill="none"/><path d="M910.65 840.5h-.95v-.5h.95z" stroke="#333" stroke-width=".05" fill="#333"/><path d="M910.17 898.38l-4.63-14.26h9.27z" stroke="#333" fill="#333"/><path d="M910 1020.5v24.46a.04.04 0 0 1-.04.04.04.04 0 0 0-.04.04v8.58" stroke="#333" fill="none"/><path d="M910.48 1020.5h-.96v-.5h.96z" stroke="#333" stroke-width=".05" fill="#333"/><path d="M909.92 1068.38l-4.64-14.26h9.27z" stroke="#333" fill="#333"/><path d="M900 1190.5v33.12" stroke="#333" fill="none"/><path d="M900.48 1190.5h-.96v-.5h.96z" stroke="#333" stroke-width=".05" fill="#333"/><path d="M900 1238.38l-4.63-14.26h9.26z" stroke="#333" fill="#333"/><defs><path fill="#fff" d="M14 0l48-248h34L48 0H14" id="l"/><path fill="#fff" d="M67-158c22-48 132-52 116 29L158 0h-32l25-140c3-38-53-32-70-12C52-117 51-52 38 0H6l36-190h30" id="m"/><path fill="#fff" d="M50-231l6-30h32l-6 30H50zM6 0l37-190h31L37 0H6" id="n"/><path fill="#fff" d="M44-68c0 29 11 47 38 47 30 0 42-19 51-41l28 9C148-21 126 4 82 4 31 4 10-29 12-85c3-77 74-140 146-93 12 8 15 23 18 40l-31 5c-1-22-13-36-36-36-52 0-65 49-65 101" id="o"/><path fill="#fff" d="M30-147c31-64 166-65 159 27C183-49 158 1 86 4 9 8 1-88 30-147zM88-20c53 0 68-48 68-100 0-31-11-51-44-50-52 1-68 46-68 97 0 32 13 53 44 53" id="p"/><g id="a"><use transform="matrix(0.05,0,0,0.05,0,0)" xlink:href="#l"/><use transform="matrix(0.05,0,0,0.05,5,0)" xlink:href="#m"/><use transform="matrix(0.05,0,0,0.05,15,0)" xlink:href="#n"/><use transform="matrix(0.05,0,0,0.05,18.95,0)" xlink:href="#o"/><use transform="matrix(0.05,0,0,0.05,27.950000000000003,0)" xlink:href="#n"/><use transform="matrix(0.05,0,0,0.05,31.899999999999995,0)" xlink:href="#p"/></g><path fill="#fff" d="M87-220l-18 92h140l-5 28H64L45 0H11l48-248h178l-5 28H87" id="q"/><g id="b"><use transform="matrix(0.05,0,0,0.05,0,0)" xlink:href="#q"/><use transform="matrix(0.05,0,0,0.05,10.950000000000001,0)" xlink:href="#n"/><use transform="matrix(0.05,0,0,0.05,14.9,0)" xlink:href="#m"/></g><path fill="#fff" d="M103-194c29 0 47 14 56 36 2-11 5-23 8-32h30L160-5C157 61 82 97 21 62 9 55 4 45 1 30l28-7c7 42 83 31 92-3 4-16 9-38 13-55-13 20-29 36-62 36-40 0-60-25-60-64 0-71 23-131 91-131zm4 24c-53 0-58 54-61 104-2 27 10 44 36 44 49 0 65-50 67-102 1-29-15-46-42-46" id="r"/><path fill="#fff" d="M66-151c12-25 30-51 66-40l-6 26C45-176 58-65 38 0H6l36-190h30" id="s"/><path fill="#fff" d="M111-194c62-3 86 47 72 106H45c-7 38 6 69 45 68 27-1 43-14 53-32l24 11C152-15 129 4 87 4 38 3 12-23 12-71c0-70 32-119 99-123zm44 81c14-66-71-72-95-28-4 8-8 17-11 28h106" id="t"/><path fill="#fff" d="M55-144c13 50 104 24 104 88C159 21 15 23 1-39l26-10c6 40 102 42 102-4-13-50-104-23-104-87 0-71 143-71 148-8l-29 4c-5-35-85-37-89 0" id="u"/><g id="c"><use transform="matrix(0.05,0,0,0.05,0,0)" xlink:href="#l"/><use transform="matrix(0.05,0,0,0.05,5,0)" xlink:href="#m"/><use transform="matrix(0.05,0,0,0.05,15,0)" xlink:href="#r"/><use transform="matrix(0.05,0,0,0.05,25,0)" xlink:href="#s"/><use transform="matrix(0.05,0,0,0.05,30.950000000000003,0)" xlink:href="#t"/><use transform="matrix(0.05,0,0,0.05,40.95,0)" xlink:href="#u"/><use transform="matrix(0.05,0,0,0.05,49.95,0)" xlink:href="#t"/></g><path fill="#fff" d="M165-48c-4 18 1 34 23 27l-3 20c-29 8-62 0-52-35h-2C116-14 99 4 63 4 30 4 8-16 8-49c0-68 71-67 138-67 10-26 0-56-31-54-26 1-42 9-47 31l-32-5c8-67 160-71 144 15-5 28-9 54-15 81zM42-50c3 52 80 24 89-6 7-12 7-24 11-38-47 1-103-4-100 44" id="v"/><use transform="matrix(0.05,0,0,0.05,0,0)" xlink:href="#v" id="d"/><path fill="#fff" d="M11 0l48-248h34L50-27h125l-5 27H11" id="w"/><g id="e"><use transform="matrix(0.05,0,0,0.05,0,0)" xlink:href="#w"/><use transform="matrix(0.05,0,0,0.05,10,0)" xlink:href="#t"/><use transform="matrix(0.05,0,0,0.05,20,0)" xlink:href="#t"/><use transform="matrix(0.05,0,0,0.05,30,0)" xlink:href="#s"/></g><path fill="#fff" d="M68-162c25-46 127-43 121 31C183-60 169 1 98 4 69 5 53-11 43-31L36 0H5l52-261h31zm88 36c2-27-9-43-34-43-55 0-70 51-70 103 0 29 15 45 43 46 52 0 58-58 61-106" id="x"/><use transform="matrix(0.05,0,0,0.05,0,0)" xlink:href="#x" id="f"/><path fill="#fff" d="M194-120c59 52 2 134-86 124-53-6-90-18-98-63l31-7c8 30 29 43 70 43 46 0 84-17 71-62-32-43-135-20-137-98-3-89 178-90 191-16l-30 9c-8-48-127-53-127 5 0 53 81 35 115 65" id="y"/><path fill="#fff" d="M67 3c-93-2-31-127-26-193h32L48-50c-3 39 53 32 70 12 30-34 30-101 43-152h32L157 0h-30c1-10 6-24 4-33-14 20-29 37-64 36" id="z"/><path fill="#fff" d="M248-111c6-24 9-61-24-58-72 9-57 108-77 169h-31l26-142c3-37-50-30-64-10C52-115 50-51 37 0H6l36-190h30c-1 10-6 24-4 32 13-43 101-52 105 5 13-22 29-41 61-41 90 0 28 129 23 194h-31" id="A"/><g id="g"><use transform="matrix(0.05,0,0,0.05,0,0)" xlink:href="#y"/><use transform="matrix(0.05,0,0,0.05,12,0)" xlink:href="#z"/><use transform="matrix(0.05,0,0,0.05,22,0)" xlink:href="#A"/><use transform="matrix(0.05,0,0,0.05,36.95,0)" xlink:href="#v"/></g><path fill="#fff" d="M23-150v-26h175v26H23zm0 90v-26h175v26H23" id="B"/><use transform="matrix(0.05,0,0,0.05,0,0)" xlink:href="#B" id="h"/><path fill="#fff" d="M123-107v75H97v-75H23v-26h74v-75h26v75h75v26h-75" id="C"/><g id="i"><use transform="matrix(0.05,0,0,0.05,0,0)" xlink:href="#v"/><use transform="matrix(0.05,0,0,0.05,10,0)" xlink:href="#C"/><use transform="matrix(0.05,0,0,0.05,20.5,0)" xlink:href="#x"/></g><path fill="#fff" d="M67-162c32-53 139-36 121 50C175-51 163 2 97 4 68 4 52-11 42-31 38 6 28 39 22 75H-9l50-265h29c-1 10 0 20-3 28zm89 36c0-26-10-43-35-43-54 0-67 50-69 103-1 29 14 45 42 46 53 0 62-58 62-106" id="D"/><g id="j"><use transform="matrix(0.05,0,0,0.05,0,0)" xlink:href="#l"/><use transform="matrix(0.05,0,0,0.05,5,0)" xlink:href="#A"/><use transform="matrix(0.05,0,0,0.05,19.950000000000003,0)" xlink:href="#D"/><use transform="matrix(0.05,0,0,0.05,29.950000000000003,0)" xlink:href="#s"/><use transform="matrix(0.05,0,0,0.05,35.900000000000006,0)" xlink:href="#n"/><use transform="matrix(0.05,0,0,0.05,39.85000000000001,0)" xlink:href="#A"/><use transform="matrix(0.05,0,0,0.05,54.80000000000001,0)" xlink:href="#n"/><use transform="matrix(0.05,0,0,0.05,58.750000000000014,0)" xlink:href="#s"/></g><g id="k"><use transform="matrix(0.05,0,0,0.05,0,0)" xlink:href="#y"/><use transform="matrix(0.05,0,0,0.05,12,0)" xlink:href="#z"/><use transform="matrix(0.05,0,0,0.05,22,0)" xlink:href="#A"/><use transform="matrix(0.05,0,0,0.05,36.95,0)" xlink:href="#v"/></g></defs></g></svg>